<?xml version="1.0" encoding="UTF-8"?>
<svg width="32px" height="32px" viewBox="0 0 32 32" version="1.1" xmlns="http://www.w3.org/2000/svg">
    <path d="M18.036 13.858a2.311 2.311 0 0 1-3.27 0 2.311 2.311 0 0 1 0-3.27 2.311 2.311 0 0 1 3.27 0 2.311 2.311 0 0 1 0 3.27M8.028 32C3.598 32 0 28.402 0 23.972V8.028C0 3.598 3.598 0 8.028 0h15.944C28.402 0 32 3.598 32 8.028v15.944C32 28.402 28.402 32 23.972 32H8.028zm11.571-21.036a3.896 3.896 0 0 0-5.51 0 3.896 3.896 0 0 0 0 5.51 3.892 3.892 0 0 0 5.51 0 3.896 3.896 0 0 0 0-5.51zm-7.42 2.755a3.876 3.876 0 0 1 1.91-3.34l-.81-.81a.793.793 0 0 1-1.116 0l-7.885-7.885a.791.791 0 0 1 0-1.116.791.791 0 0 1 1.116 0l7.885 7.885c.307.307.307.809 0 1.116l.81.81a3.876 3.876 0 0 1 3.34-1.91 3.876 3.876 0 0 1 3.34 1.91l5.525-5.525a.791.791 0 0 1 1.116 0 .791.791 0 0 1 0 1.116l-5.525 5.525a3.876 3.876 0 0 1-1.91 3.34l.81.81c.307-.307.809-.307 1.116 0l7.885 7.885a.791.791 0 0 1 0 1.116.791.791 0 0 1-1.116 0l-7.885-7.885a.793.793 0 0 1 0-1.116l-.81-.81a3.876 3.876 0 0 1-3.34 1.91 3.876 3.876 0 0 1-3.34-1.91l-.81.81c.307.307.307.809 0 1.116l-7.885 7.885a.791.791 0 0 1-1.116 0 .791.791 0 0 1 0-1.116l7.885-7.885a.793.793 0 0 1 1.116 0l.81-.81z" fill="#FF6C37" fill-rule="nonzero"/>
</svg>
